<svg id="Capa_1" enable-background="new 0 0 512 512" height="512" viewBox="0 0 512 512" width="512" xmlns="http://www.w3.org/2000/svg"><g><g><path d="m90.162 504.5c-38.625 0-69.937-31.312-69.937-69.937v-349.686h206.949v349.686c0 38.625-98.387 69.937-137.012 69.937z" fill="#ebebeb"/><path d="m227.174 84.88v349.68c0 29.96-59.19 55.52-103.77 65.48-26.48-9.96-45.32-35.52-45.32-65.48v-349.68z" fill="#e2e2e2"/><path d="m227.174 84.88v349.68c0 29.96-59.19 55.52-103.77 65.48-26.48-9.96-45.32-35.52-45.32-65.48v-349.68z" fill="#e2e2e2"/><path d="m491.779 7.5v427.06c0 19.32-7.83 36.8-20.48 49.46-12.66 12.65-30.14 20.48-49.46 20.48h-331.68c38.63 0 69.94-31.31 69.94-69.94v-427.06z" fill="#f8f6f6"/><path d="m491.779 434.56c0 19.32-7.83 36.8-20.48 49.46-12.66 12.65-30.14 20.48-49.46 20.48h-331.68c38.63 0 69.94-31.31 69.94-69.94z" fill="#ebebeb"/><path d="m439.405 128.759h-226.933c-9.595 0-17.374-7.779-17.374-17.374v-51.508c0-9.595 7.779-17.374 17.374-17.374h226.933c9.595 0 17.374 7.779 17.374 17.374v51.508c0 9.595-7.779 17.374-17.374 17.374z" fill="#e2e2e2"/><path d="m195.098 161.582h109.374v115.47h-109.374z" fill="#685e68"/><path d="m226.301 277.052 9.595-37.952c-8.298-4.805-13.881-13.775-13.881-24.056 0-15.338 12.432-27.778 27.77-27.778s27.77 12.44 27.77 27.778c0 10.281-5.583 19.251-13.881 24.056l9.595 37.952" fill="#9c9c9c"/><path d="m347.405 277.052h109.374v115.47h-109.374z" fill="#7a6d79"/><path d="m456.779 314.862v77.661h-109.38v-27.96l33.24-42.58 27.26 27.27z" fill="#685e68"/></g><g><path d="m491.778 0h-331.68c-4.143 0-7.5 3.358-7.5 7.5v69.88h-132.376c-4.143 0-7.5 3.358-7.5 7.5v307.71c0 4.142 3.357 7.5 7.5 7.5s7.5-3.358 7.5-7.5v-300.21h124.877v61.7h-93.539c-4.143 0-7.5 3.358-7.5 7.5s3.357 7.5 7.5 7.5h93.539v23.49h-93.539c-4.143 0-7.5 3.358-7.5 7.5s3.357 7.5 7.5 7.5h93.539v23.49h-93.539c-4.143 0-7.5 3.358-7.5 7.5s3.357 7.5 7.5 7.5h93.539v61.98h-93.539c-4.143 0-7.5 3.358-7.5 7.5s3.357 7.5 7.5 7.5h93.539v23.49h-93.539c-4.143 0-7.5 3.358-7.5 7.5s3.357 7.5 7.5 7.5h93.539v23.49h-93.539c-4.143 0-7.5 3.358-7.5 7.5s3.357 7.5 7.5 7.5h93.539v34.543c0 .013.002.025.002.038-.023 34.411-28.023 62.399-62.439 62.399-34.43 0-62.44-28.01-62.44-62.44v-6.97c0-4.142-3.357-7.5-7.5-7.5s-7.5 3.358-7.5 7.5v6.97c0 42.701 34.739 77.44 77.44 77.44h331.68c42.698 0 77.437-34.738 77.437-77.437v-427.063c-.001-4.142-3.358-7.5-7.501-7.5zm-7.5 434.563c0 34.428-28.01 62.437-62.438 62.437h-285.943c19.206-14.106 31.704-36.837 31.704-62.44v-349.68c0-.02-.003-.039-.003-.058v-69.822h316.68z"/><path d="m212.472 136.26h226.931c13.719 0 24.88-11.156 24.88-24.87v-51.51c0-13.719-11.161-24.88-24.88-24.88h-18.301c-4.143 0-7.5 3.358-7.5 7.5s3.357 7.5 7.5 7.5h18.301c5.448 0 9.88 4.432 9.88 9.88v51.51c0 5.442-4.432 9.87-9.88 9.87h-226.931c-5.442 0-9.87-4.427-9.87-9.87v-51.51c0-5.448 4.428-9.88 9.87-9.88h173.63c4.143 0 7.5-3.358 7.5-7.5s-3.357-7.5-7.5-7.5h-173.63c-13.714 0-24.87 11.161-24.87 24.88v51.51c0 13.714 11.156 24.87 24.87 24.87z"/><path d="m195.099 284.552h109.373c4.143 0 7.5-3.358 7.5-7.5v-115.47c0-4.142-3.357-7.5-7.5-7.5h-109.373c-4.143 0-7.5 3.358-7.5 7.5v115.471c0 4.141 3.357 7.499 7.5 7.499zm44.555-51.943c-6.254-3.621-10.14-10.352-10.14-17.565 0-11.181 9.094-20.278 20.271-20.278s20.271 9.097 20.271 20.278c0 7.213-3.886 13.944-10.14 17.565-2.9 1.679-4.335 5.08-3.514 8.329l7.234 28.614h-27.702l7.234-28.614c.821-3.25-.613-6.65-3.514-8.329zm-37.055-63.527h94.373v100.471h-17.863l-6.899-27.287c8.036-6.643 12.846-16.632 12.846-27.222 0-19.452-15.822-35.278-35.271-35.278s-35.271 15.826-35.271 35.278c0 10.589 4.81 20.579 12.846 27.222l-6.899 27.287h-17.863v-100.471z"/><path d="m195.099 323.042h109.373c4.143 0 7.5-3.358 7.5-7.5s-3.357-7.5-7.5-7.5h-109.373c-4.143 0-7.5 3.358-7.5 7.5s3.357 7.5 7.5 7.5z"/><path d="m195.099 361.533h109.373c4.143 0 7.5-3.358 7.5-7.5s-3.357-7.5-7.5-7.5h-109.373c-4.143 0-7.5 3.358-7.5 7.5s3.357 7.5 7.5 7.5z"/><path d="m195.099 438.513h109.373c4.143 0 7.5-3.358 7.5-7.5s-3.357-7.5-7.5-7.5h-109.373c-4.143 0-7.5 3.358-7.5 7.5s3.357 7.5 7.5 7.5z"/><path d="m113.594 438.51c4.143 0 7.5-3.358 7.5-7.5s-3.357-7.5-7.5-7.5h-54.534c-4.143 0-7.5 3.358-7.5 7.5s3.357 7.5 7.5 7.5z"/><path d="m189.119 477.003h52.17c4.143 0 7.5-3.358 7.5-7.5s-3.357-7.5-7.5-7.5h-52.17c-4.143 0-7.5 3.358-7.5 7.5s3.358 7.5 7.5 7.5z"/><path d="m456.779 192.572h-109.374c-4.143 0-7.5 3.358-7.5 7.5s3.357 7.5 7.5 7.5h109.374c4.143 0 7.5-3.358 7.5-7.5s-3.357-7.5-7.5-7.5z"/><path d="m347.405 246.062h66.806c4.143 0 7.5-3.358 7.5-7.5s-3.357-7.5-7.5-7.5h-66.806c-4.143 0-7.5 3.358-7.5 7.5s3.358 7.5 7.5 7.5z"/><path d="m456.779 269.552h-109.374c-4.143 0-7.5 3.358-7.5 7.5v115.47c0 4.142 3.357 7.5 7.5 7.5h109.374c4.143 0 7.5-3.358 7.5-7.5v-115.47c0-4.142-3.357-7.5-7.5-7.5zm-7.5 15v26.414l-40.536 28.519-22.799-22.808c-1.52-1.52-3.613-2.32-5.764-2.184-2.145.131-4.131 1.177-5.453 2.871l-19.822 25.393v-58.206h94.374zm-94.374 100.47v-17.887l26.427-33.854 21.263 21.271c2.58 2.58 6.64 2.93 9.62.832l37.064-26.077v55.716h-94.374z"/><path d="m456.779 423.513h-109.374c-4.143 0-7.5 3.358-7.5 7.5s3.357 7.5 7.5 7.5h109.374c4.143 0 7.5-3.358 7.5-7.5s-3.357-7.5-7.5-7.5z"/><path d="m446.839 462.003h-109.374c-4.143 0-7.5 3.358-7.5 7.5s3.357 7.5 7.5 7.5h109.374c4.143 0 7.5-3.358 7.5-7.5s-3.358-7.5-7.5-7.5z"/><path d="m219.674 85.631c0 4.142 3.357 7.5 7.5 7.5h197.529c4.143 0 7.5-3.358 7.5-7.5s-3.357-7.5-7.5-7.5h-197.529c-4.143 0-7.5 3.358-7.5 7.5z"/></g></g></svg>